<svg xmlns="http://www.w3.org/2000/svg" viewBox="0 0 1024 1024" role="img" aria-label="Shiba Inu hyphenation logo">
  <rect width="1024" height="1024" fill="#000"/>

  <g fill="none" stroke="#fff" stroke-width="26" stroke-linecap="round" stroke-linejoin="round">
    <!-- ears -->
    <path d="M 248 340 L 276 147 L 405 236" />
    <path d="M 766 340 L 741 147 L 617 237" />

    <!-- horizontal segments -->
    <line x1="442" y1="242" x2="582" y2="242" />
    <line x1="343" y1="306" x2="682" y2="306" />
    <line x1="284" y1="368" x2="738" y2="368" />
    <line x1="228" y1="432" x2="429" y2="432" />
    <line x1="595" y1="432" x2="796" y2="432" />

    <line x1="188" y1="495" x2="310" y2="495" />
    <line x1="714" y1="495" x2="833" y2="495" />
    <line x1="188" y1="558" x2="302" y2="558" />
    <line x1="722" y1="558" x2="836" y2="558" />

    <line x1="224" y1="621" x2="345" y2="621" />
    <line x1="679" y1="621" x2="800" y2="621" />

    <line x1="271" y1="685" x2="349" y2="685" />
    <line x1="683" y1="685" x2="753" y2="685" />

    <line x1="654" y1="747" x2="710" y2="747" />
    <line x1="316" y1="748" x2="372" y2="748" />
    <line x1="467" y1="748" x2="558" y2="748" />

    <line x1="377" y1="812" x2="647" y2="812" />

    <!-- snout connector (stem + main mouth segment) -->
    <line x1="412" y1="685" x2="620" y2="685" />
    <line x1="512" y1="646" x2="512" y2="685" />
  </g>

  <g fill="#fff">
    <!-- eyes -->
    <rect x="364" y="465" width="65" height="52" rx="22" transform="rotate(10 396.5 491)"/>
    <rect x="595" y="465" width="65" height="52" rx="22" transform="rotate(-10 627.5 491)"/>

    <!-- nose -->
    <path d="M 468 604
             C 468 584 488 570 512 570
             C 536 570 556 584 556 604
             C 556 624 544 638 512 646
             C 480 638 468 624 468 604 Z"/>
  </g>
</svg>
